<svg xmlns="http://www.w3.org/2000/svg" width="29.913" height="26.825" viewBox="0 0 29.913 26.825">
  <g id="그룹_821" data-name="그룹 821" transform="translate(-22.943 -942.588)">
    <g id="그룹_818" data-name="그룹 818" transform="translate(-248.803 454.424)">
      <path id="패스_808" data-name="패스 808" d="M285.659,552.633a6.957,6.957,0,1,1-6.956-6.956A6.956,6.956,0,0,1,285.659,552.633Z" transform="translate(0 -44.602)" fill="#666"/>
      <g id="그룹_817" data-name="그룹 817" transform="translate(273.539 488.163)">
        <rect id="사각형_19" data-name="사각형 19" width="9.205" height="22.899" rx="4.602" transform="translate(0.449 0.674)" fill="#ccc"/>
        <g id="그룹_816" data-name="그룹 816" transform="translate(0 0)">
          <path id="패스_809" data-name="패스 809" d="M285.009,512.185h-.224a5.057,5.057,0,0,1-5.051-5.051V493.214a5.057,5.057,0,0,1,5.051-5.051h.224a5.057,5.057,0,0,1,5.051,5.051v13.919A5.057,5.057,0,0,1,285.009,512.185Zm-.224-22.9a3.933,3.933,0,0,0-3.929,3.929v13.919a3.933,3.933,0,0,0,3.929,3.929h.224a3.933,3.933,0,0,0,3.929-3.929V493.214a3.933,3.933,0,0,0-3.929-3.929Z" transform="translate(-279.733 -488.163)" fill="#3f3f3f"/>
        </g>
      </g>
      <path id="패스_810" data-name="패스 810" d="M285.742,507.277a1.01,1.01,0,0,1-1.01-1.01v-5.8c0-1.459-.054-2.969,1.337-4.08a.979.979,0,0,1,1.393.159,1.006,1.006,0,0,1-.119,1.42c-.6.483-.591,1.153-.591,2.5v5.8A1.01,1.01,0,0,1,285.742,507.277Z" transform="translate(-10.07 -6.205)" fill="#fff"/>
    </g>
    <g id="그룹_819" data-name="그룹 819" transform="translate(-232.803 454.424)">
      <path id="패스_808-2" data-name="패스 808" d="M285.659,552.633a6.957,6.957,0,1,1-6.956-6.956A6.956,6.956,0,0,1,285.659,552.633Z" transform="translate(0 -44.602)" fill="#666"/>
      <g id="그룹_817-2" data-name="그룹 817" transform="translate(273.539 488.163)">
        <rect id="사각형_19-2" data-name="사각형 19" width="9.205" height="22.899" rx="4.602" transform="translate(0.449 0.674)" fill="#ccc"/>
        <g id="그룹_816-2" data-name="그룹 816" transform="translate(0 0)">
          <path id="패스_809-2" data-name="패스 809" d="M285.009,512.185h-.224a5.057,5.057,0,0,1-5.051-5.051V493.214a5.057,5.057,0,0,1,5.051-5.051h.224a5.057,5.057,0,0,1,5.051,5.051v13.919A5.057,5.057,0,0,1,285.009,512.185Zm-.224-22.9a3.933,3.933,0,0,0-3.929,3.929v13.919a3.933,3.933,0,0,0,3.929,3.929h.224a3.933,3.933,0,0,0,3.929-3.929V493.214a3.933,3.933,0,0,0-3.929-3.929Z" transform="translate(-279.733 -488.163)" fill="#3f3f3f"/>
        </g>
      </g>
      <path id="패스_810-2" data-name="패스 810" d="M285.742,507.277a1.01,1.01,0,0,1-1.01-1.01v-5.8c0-1.459-.054-2.969,1.337-4.08a.979.979,0,0,1,1.393.159,1.006,1.006,0,0,1-.119,1.42c-.6.483-.591,1.153-.591,2.5v5.8A1.01,1.01,0,0,1,285.742,507.277Z" transform="translate(-10.07 -6.205)" fill="#fff"/>
    </g>
  </g>
</svg>
