<svg xmlns="http://www.w3.org/2000/svg" width="92.3" height="98.815" viewBox="0 0 92.3 98.815">
  <g id="그룹_814" data-name="그룹 814" transform="translate(-125.113 -418.69)">
    <path id="패스_791" data-name="패스 791" d="M219.955,437.634l.331,57.581,6.668-19.523-.167-34.411a9.032,9.032,0,0,0-9.03-8.988h-.044l-9,.044c.006.1.067,1.053.129,2.148.02.349.039.706.057,1.054l8.883-.051A2.162,2.162,0,0,1,219.955,437.634Z" transform="translate(-26.511 -4.314)" fill="#f9697b"/>
    <path id="패스_792" data-name="패스 792" d="M189.922,519.749l.544-4.906-53.138.3A2.165,2.165,0,0,1,135.157,513l-.429-74.928a2.164,2.164,0,0,1,2.146-2.17l11.431-.066c.016-.3.033-.6.051-.891.061-1.056.124-1.975.124-1.976h0a3.42,3.42,0,0,1,.027-.367l-11.606.056a9.033,9.033,0,0,0-8.989,9.032v.044l.338,69.281A9.033,9.033,0,0,0,137.282,520h.025Z" transform="translate(-0.888 -4.412)" fill="#f9697b"/>
    <path id="패스_793" data-name="패스 793" d="M230.387,539.5l-.014.04-.021.063h0l-.274.8-.174-.059-7.424,12.3h.021a9.031,9.031,0,0,0,8.987-9.031v-.046l-.035-7.19Z" transform="translate(-30.875 -37.318)" fill="#f9697b"/>
    <rect id="사각형_9" data-name="사각형 9" width="4.569" height="4.569" transform="translate(179.635 492.832)" fill="#fff"/>
    <path id="패스_794" data-name="패스 794" d="M137.892,439.459l.429,74.928a2.165,2.165,0,0,0,2.171,2.145l53.138-.3,1.137-10.247-.1-.033.152-.445h0l3.007-8.8-.331-57.581a2.162,2.162,0,0,0-2.17-2.145l-8.883.051c.042.809.074,1.562.074,1.989a3.211,3.211,0,0,1-.013.333,1.2,1.2,0,0,1-.037.192l-.2.692-34.622.17-.2-.691a1.243,1.243,0,0,1-.04-.2l-.009-.119c0-.074,0-.146,0-.229,0-.43.033-1.164.074-1.939l-11.431.066A2.164,2.164,0,0,0,137.892,439.459Zm52.072,63.831a1.616,1.616,0,0,1-1.615,1.615h-4.754a1.616,1.616,0,0,1-1.615-1.615v-4.754a1.617,1.617,0,0,1,1.615-1.614h4.754a1.617,1.617,0,0,1,1.615,1.614Zm0-12.8a1.616,1.616,0,0,1-1.615,1.615h-4.754a1.616,1.616,0,0,1-1.615-1.615v-4.754a1.616,1.616,0,0,1,1.615-1.614h4.754a1.616,1.616,0,0,1,1.615,1.614Zm0-12.8a1.616,1.616,0,0,1-1.615,1.615h-4.754a1.616,1.616,0,0,1-1.615-1.615v-4.754a1.617,1.617,0,0,1,1.615-1.615h4.754a1.617,1.617,0,0,1,1.615,1.615ZM172.636,449.78H191.8v1.707H172.636Zm0,5.044H191.8v1.707H172.636Zm0,5.045H191.8v1.707H172.636Zm0,5.044H191.8v1.707H172.636Zm-25.22-10.489h5.954v-5.952h8.453v5.952h5.953v8.454h-5.953v5.953h-8.453v-5.953h-5.954Zm-.083,21.635h33.343v2.049H147.333Zm0,12.8h33.343v2.049H147.333Zm0,12.8h33.343V503.7H147.333Z" transform="translate(-4.052 -5.798)" fill="#fff"/>
    <rect id="사각형_10" data-name="사각형 10" width="4.569" height="4.569" transform="translate(179.635 480.034)" fill="#fff"/>
    <rect id="사각형_11" data-name="사각형 11" width="4.569" height="4.569" transform="translate(179.635 469.342)" fill="#fff"/>
    <path id="패스_795" data-name="패스 795" d="M160.986,428.613a1.839,1.839,0,0,0-.266.888v.036l0,.039s-.061.914-.123,1.961c-.042.7-.082,1.459-.1,2.034l31.263-.153c-.023-.621-.066-1.47-.111-2.249-.064-1.145-.129-2.149-.129-2.151l0-.029v-.028a1.11,1.11,0,0,0-.153-.531,2.4,2.4,0,0,0-.507-.616,5.031,5.031,0,0,0-1.781-.994,4.055,4.055,0,0,0-1.2-.212h-.012l-7.825.038.037-1c0-.111.01-.167.009-.176h0a4,4,0,0,0-4-3.98h-.019a4,4,0,0,0-3.981,4v.014c0,.006,0,.063.012.178l.046,1-8.223.039a3.2,3.2,0,0,0-1.609.552A4.021,4.021,0,0,0,160.986,428.613Zm12.382-3.109v-.014a2.716,2.716,0,0,1,2.7-2.712h.014a2.715,2.715,0,0,1,2.71,2.7v.014a2.715,2.715,0,0,1-2.7,2.71h-.014A2.714,2.714,0,0,1,173.368,425.5Z" transform="translate(-11.218 -0.888)" fill="#a7a9ac"/>
    <path id="패스_796" data-name="패스 796" d="M182.385,428.435a2.032,2.032,0,0,0,2.02-2.028V426.4a2.031,2.031,0,0,0-2.028-2.02h-.011a2.033,2.033,0,0,0-2.02,2.029v.01a2.031,2.031,0,0,0,2.028,2.019Z" transform="translate(-17.515 -1.803)" fill="#fff"/>
    <line id="선_1" data-name="선 1" x2="0.002" transform="translate(164.847 421.891)" fill="none" stroke="#000" stroke-linecap="round" stroke-linejoin="round" stroke-width="0"/>
    <path id="패스_797" data-name="패스 797" d="M182.058,428.8h.014a2.715,2.715,0,0,0,2.7-2.71v-.014a2.715,2.715,0,0,0-2.71-2.7h-.014a2.716,2.716,0,0,0-2.7,2.712v.014A2.714,2.714,0,0,0,182.058,428.8Zm-2.028-2.7v-.01a2.033,2.033,0,0,1,2.02-2.029h.011a2.031,2.031,0,0,1,2.028,2.02v.011a2.032,2.032,0,0,1-2.02,2.028h-.01A2.031,2.031,0,0,1,180.03,426.1Z" transform="translate(-17.198 -1.486)"/>
    <path id="패스_798" data-name="패스 798" d="M160.592,473.146h4.629v-5.953h5.953v-4.628H165.22v-5.953h-4.629v5.953h-5.953v4.628h5.953Z" transform="translate(-9.363 -12.025)" fill="#f9697b"/>
    <path id="패스_799" data-name="패스 799" d="M157.792,474.17h8.453v-5.953H172.2v-8.454h-5.953v-5.952h-8.453v5.952h-5.954v8.454h5.954Zm-4.041-12.494H159.7v-5.953h4.629v5.953h5.953V466.3h-5.953v5.953H159.7V466.3H153.75Z" transform="translate(-8.475 -11.137)"/>
    <rect id="사각형_12" data-name="사각형 12" width="33.343" height="2.049" transform="translate(143.281 470.261)" fill="#333"/>
    <path id="패스_800" data-name="패스 800" d="M208.821,487.277h-4.754a1.617,1.617,0,0,0-1.615,1.615v4.754a1.616,1.616,0,0,0,1.615,1.615h4.754a1.616,1.616,0,0,0,1.615-1.615v-4.754A1.617,1.617,0,0,0,208.821,487.277Zm-.092,6.276h-4.569v-4.569h4.569Z" transform="translate(-24.524 -21.749)"/>
    <rect id="사각형_13" data-name="사각형 13" width="33.343" height="2.049" transform="translate(143.281 483.059)" fill="#333"/>
    <path id="패스_801" data-name="패스 801" d="M208.821,506.019h-4.754a1.616,1.616,0,0,0-1.615,1.614v4.754A1.616,1.616,0,0,0,204.067,514h4.754a1.616,1.616,0,0,0,1.615-1.615v-4.754A1.616,1.616,0,0,0,208.821,506.019Zm-.092,6.276h-4.569v-4.569h4.569Z" transform="translate(-24.524 -27.692)"/>
    <rect id="사각형_14" data-name="사각형 14" width="33.343" height="2.049" transform="translate(143.281 495.858)" fill="#333"/>
    <path id="패스_802" data-name="패스 802" d="M208.821,524.76h-4.754a1.617,1.617,0,0,0-1.615,1.614v4.754a1.616,1.616,0,0,0,1.615,1.615h4.754a1.616,1.616,0,0,0,1.615-1.615v-4.754A1.617,1.617,0,0,0,208.821,524.76Zm-.092,6.276h-4.569v-4.569h4.569Z" transform="translate(-24.524 -33.635)"/>
    <rect id="사각형_15" data-name="사각형 15" width="19.166" height="1.707" transform="translate(168.584 443.982)"/>
    <rect id="사각형_16" data-name="사각형 16" width="19.166" height="1.707" transform="translate(168.584 449.027)"/>
    <rect id="사각형_17" data-name="사각형 17" width="19.166" height="1.707" transform="translate(168.584 454.071)"/>
    <rect id="사각형_18" data-name="사각형 18" width="19.166" height="1.707" transform="translate(168.584 459.115)"/>
    <path id="패스_803" data-name="패스 803" d="M253.974,457.848a2.009,2.009,0,0,0-2.554,1.254l-.684,2a2.636,2.636,0,0,1,.738.757,2.978,2.978,0,0,1,.44,1.386l2.1.716,1.215-3.558a2.009,2.009,0,0,0-1.254-2.555Z" transform="translate(-39.835 -12.383)" fill="#46859a"/>
    <path id="패스_804" data-name="패스 804" d="M217.413,447.37a3.924,3.924,0,0,0-7.638-1.268l-.755,2.211a2.845,2.845,0,0,0-1.235.562,3.248,3.248,0,0,0-1.067,1.514l-4.4,12.887-.128-26.317a10.945,10.945,0,0,0-10.942-10.89h-.055l-9.718.047a5.934,5.934,0,0,0-2.151-1.656,6.454,6.454,0,0,0-2.668-.654h-.035l-5.9.029a5.911,5.911,0,0,0-5.859-5.144h-.029a5.911,5.911,0,0,0-5.835,5.2l-6.311.029a4.605,4.605,0,0,0-1.8.41,6.246,6.246,0,0,0-2.247,1.685c-.07.085-.139.173-.2.262l-12.43.06a10.946,10.946,0,0,0-10.892,10.944v.053l.338,69.281A10.946,10.946,0,0,0,136.394,517.5h.051l55.19-.268a10.944,10.944,0,0,0,10.89-10.943v-.054l-.956,0,.956,0-.062-12.7,2.365-6.923,8.862-25.945h0l2.833-8.292-.536-.183,1.216-3.559A3.924,3.924,0,0,0,217.413,447.37Zm-2.021.651-1.215,3.558-2.1-.716a2.978,2.978,0,0,0-.44-1.386,2.637,2.637,0,0,0-.738-.757l.684-2a2.012,2.012,0,1,1,3.808,1.3Zm-79,67.571a9.033,9.033,0,0,1-9.031-8.988l-.338-69.281v-.044a9.033,9.033,0,0,1,8.989-9.032l11.606-.056a3.42,3.42,0,0,0-.027.367h0s-.062.921-.124,1.976c-.017.294-.034.595-.051.891-.041.775-.074,1.509-.074,1.939,0,.083,0,.155,0,.229l.009.119a1.243,1.243,0,0,0,.04.2l.2.691,34.622-.17.2-.692a1.2,1.2,0,0,0,.037-.192,3.211,3.211,0,0,0,.013-.333c0-.427-.033-1.18-.074-1.989-.018-.348-.037-.705-.057-1.054-.062-1.095-.123-2.051-.129-2.148l9-.044h.044a9.032,9.032,0,0,1,9.03,8.988l.167,34.411L193.775,490.9l-3.007,8.8h0l-.152.445.1.033-1.137,10.247-.544,4.906-52.614.256h-.025Zm14.692-89.208a3.2,3.2,0,0,1,1.609-.552l8.223-.039-.046-1c-.007-.114-.012-.171-.012-.178V424.6a4,4,0,0,1,3.981-4h.019a4,4,0,0,1,4,3.98h0c0,.009,0,.065-.009.176l-.037,1,7.825-.038h.012a4.055,4.055,0,0,1,1.2.212,5.031,5.031,0,0,1,1.781.994,2.4,2.4,0,0,1,.507.616,1.11,1.11,0,0,1,.153.531v.028l0,.029s.065,1.007.129,2.151c.044.779.087,1.628.111,2.249l-31.263.153c.022-.575.062-1.337.1-2.034.061-1.047.122-1.959.123-1.961l0-.039v-.036a1.839,1.839,0,0,1,.266-.888A4.021,4.021,0,0,1,151.086,426.384Zm46.925,74.273-4.968-1.7,9.4-27.52a2.513,2.513,0,0,0,.8.131,2.77,2.77,0,0,0,1.7-.6,3.244,3.244,0,0,0,1.067-1.515l5.7-16.7,2.382.814Zm-6.7,11.445,1.252-11.284,4.608,1.574Zm18.362-61.886a.665.665,0,0,1,.346.285,1.113,1.113,0,0,1,.158.591,1.4,1.4,0,0,1-.078.456l-5.9,17.287a1.334,1.334,0,0,1-.434.626.862.862,0,0,1-.521.2.573.573,0,0,1-.2-.033.656.656,0,0,1-.346-.284,1.109,1.109,0,0,1-.159-.591,1.42,1.42,0,0,1,.078-.456l5.905-17.288a1.335,1.335,0,0,1,.433-.625.863.863,0,0,1,.521-.2A.611.611,0,0,1,209.678,450.215Zm-9.065,56.078a9.031,9.031,0,0,1-8.987,9.031H191.6l7.424-12.3.174.059.274-.8h0l.021-.063.014-.04,1.066-3.121.035,7.19Z" transform="translate(0)"/>
    <path id="패스_805" data-name="패스 805" d="M223.31,538.953l-1.252,11.283,5.86-9.709Z" transform="translate(-30.741 -38.136)" fill="#46859a"/>
    <path id="패스_806" data-name="패스 806" d="M243.256,468.575l-5.7,16.7a3.244,3.244,0,0,1-1.067,1.515,2.77,2.77,0,0,1-1.7.6,2.513,2.513,0,0,1-.8-.131l-9.4,27.52,4.968,1.7,16.083-47.086Z" transform="translate(-31.543 -15.819)" fill="#48bc9d"/>
    <path id="패스_807" data-name="패스 807" d="M244.915,465.005a1.335,1.335,0,0,0-.433.625l-5.905,17.288a1.42,1.42,0,0,0-.078.456,1.109,1.109,0,0,0,.159.591.656.656,0,0,0,.346.284.573.573,0,0,0,.2.033.862.862,0,0,0,.521-.2,1.334,1.334,0,0,0,.434-.626l5.9-17.287a1.405,1.405,0,0,0,.078-.456,1.113,1.113,0,0,0-.158-.591.665.665,0,0,0-.346-.285.611.611,0,0,0-.2-.033A.863.863,0,0,0,244.915,465.005Z" transform="translate(-35.955 -14.623)" fill="#46859a"/>
  </g>
</svg>
